{"asset": {"version": "2.0"}, "scenes": [{"nodes": [0, 23]}], "buffers": [{"uri": "untitled.bin", "byteLength": 2080}], "bufferViews": [{"buffer": 0, "byteLength": 1472}, {"buffer": 0, "byteOffset": 1472, "byteLength": 8}, {"buffer": 0, "byteOffset": 1480, "byteLength": 24}, {"buffer": 0, "byteOffset": 1504, "byteLength": 32}, {"buffer": 0, "byteOffset": 1536, "byteLength": 32}, {"buffer": 0, "byteOffset": 1568, "byteLength": 32}, {"buffer": 0, "byteOffset": 1600, "byteLength": 32}, {"buffer": 0, "byteOffset": 1632, "byteLength": 32}, {"buffer": 0, "byteOffset": 1664, "byteLength": 32}, {"buffer": 0, "byteOffset": 1696, "byteLength": 32}, {"buffer": 0, "byteOffset": 1728, "byteLength": 32}, {"buffer": 0, "byteOffset": 1760, "byteLength": 32}, {"buffer": 0, "byteOffset": 1792, "byteLength": 32}, {"buffer": 0, "byteOffset": 1824, "byteLength": 32}, {"buffer": 0, "byteOffset": 1856, "byteLength": 32}, {"buffer": 0, "byteOffset": 1888, "byteLength": 32}, {"buffer": 0, "byteOffset": 1920, "byteLength": 32}, {"buffer": 0, "byteOffset": 1952, "byteLength": 32}, {"buffer": 0, "byteOffset": 1984, "byteLength": 32}, {"buffer": 0, "byteOffset": 2016, "byteLength": 32}, {"buffer": 0, "byteOffset": 2048, "byteLength": 32}], "accessors": [{"componentType": 5126, "type": "MAT4", "bufferView": 0, "count": 23}, {"bufferView": 1, "componentType": 5126, "count": 2, "type": "SCALAR", "min": [0.133332], "max": [0.133332]}, {"bufferView": 2, "componentType": 5126, "count": 2, "type": "VEC3"}, {"bufferView": 3, "componentType": 5126, "count": 2, "type": "VEC4"}, {"bufferView": 4, "componentType": 5126, "count": 2, "type": "VEC4"}, {"bufferView": 5, "componentType": 5126, "count": 2, "type": "VEC4"}, {"bufferView": 6, "componentType": 5126, "count": 2, "type": "VEC4"}, {"bufferView": 7, "componentType": 5126, "count": 2, "type": "VEC4"}, {"bufferView": 8, "componentType": 5126, "count": 2, "type": "VEC4"}, {"bufferView": 9, "componentType": 5126, "count": 2, "type": "VEC4"}, {"bufferView": 10, "componentType": 5126, "count": 2, "type": "VEC4"}, {"bufferView": 11, "componentType": 5126, "count": 2, "type": "VEC4"}, {"bufferView": 12, "componentType": 5126, "count": 2, "type": "VEC4"}, {"bufferView": 13, "componentType": 5126, "count": 2, "type": "VEC4"}, {"bufferView": 14, "componentType": 5126, "count": 2, "type": "VEC4"}, {"bufferView": 15, "componentType": 5126, "count": 2, "type": "VEC4"}, {"bufferView": 16, "componentType": 5126, "count": 2, "type": "VEC4"}, {"bufferView": 17, "componentType": 5126, "count": 2, "type": "VEC4"}, {"bufferView": 18, "componentType": 5126, "count": 2, "type": "VEC4"}, {"bufferView": 19, "componentType": 5126, "count": 2, "type": "VEC4"}, {"bufferView": 20, "componentType": 5126, "count": 2, "type": "VEC4"}], "skins": [{"joints": [0, 1, 2, 3, 4, 5, 6, 7, 8, 9, 10, 11, 12, 13, 14, 15, 16, 17, 18, 19, 20, 21, 22], "inverseBindMatrices": 0}], "nodes": [{"name": "Hips", "translation": [0.0, 0.0, 0.0], "children": [1, 15, 19]}, {"name": "Chest", "translation": [0.0, 5.21, 0.0], "children": [2, 5, 10]}, {"name": "Neck", "translation": [0.0, 18.65, 0.0], "children": [3]}, {"name": "Head", "translation": [0.0, 5.45, 0.0], "children": [4]}, {"name": "Head End", "translation": [0.0, 3.87, 0.0]}, {"name": "LeftCollar", "translation": [1.12, 16.23, 1.87], "children": [6]}, {"name": "LeftUpArm", "translation": [5.54, 0.0, 0.0], "children": [7]}, {"name": "LeftLowArm", "translation": [0.0, -11.96, 0.0], "children": [8]}, {"name": "LeftHand", "translation": [0.0, -9.93, 0.0], "children": [9]}, {"name": "LeftHand End", "translation": [0.0, -7.0, 0.0]}, {"name": "RightCollar", "translation": [-1.12, 16.23, 1.87], "children": [11]}, {"name": "RightUpArm", "translation": [-6.07, 0.0, 0.0], "children": [12]}, {"name": "RightLowArm", "translation": [0.0, -11.82, 0.0], "children": [13]}, {"name": "RightHand", "translation": [0.0, -10.65, 0.0], "children": [14]}, {"name": "RightHand End", "translation": [0.0, -7.0, 0.0]}, {"name": "LeftUpLeg", "translation": [3.91, 0.0, 0.0], "children": [16]}, {"name": "LeftLowLeg", "translation": [0.0, -18.34, 0.0], "children": [17]}, {"name": "LeftFoot", "translation": [0.0, -17.37, 0.0], "children": [18]}, {"name": "LeftFoot End", "translation": [0.0, -3.46, 0.0]}, {"name": "RightUpLeg", "translation": [-3.91, 0.0, 0.0], "children": [20]}, {"name": "RightLowLeg", "translation": [0.0, -17.63, 0.0], "children": [21]}, {"name": "RightFoot", "translation": [0.0, -17.14, 0.0], "children": [22]}, {"name": "RightFoot End", "translation": [0.0, -3.75, 0.0]}, {"name": "Mesh", "skin": 0}], "animations": [{"samplers": [{"input": 1, "interpolation": "LINEAR", "output": 2}, {"input": 1, "interpolation": "LINEAR", "output": 3}, {"input": 1, "interpolation": "LINEAR", "output": 4}, {"input": 1, "interpolation": "LINEAR", "output": 5}, {"input": 1, "interpolation": "LINEAR", "output": 6}, {"input": 1, "interpolation": "LINEAR", "output": 7}, {"input": 1, "interpolation": "LINEAR", "output": 8}, {"input": 1, "interpolation": "LINEAR", "output": 9}, {"input": 1, "interpolation": "LINEAR", "output": 10}, {"input": 1, "interpolation": "LINEAR", "output": 11}, {"input": 1, "interpolation": "LINEAR", "output": 12}, {"input": 1, "interpolation": "LINEAR", "output": 13}, {"input": 1, "interpolation": "LINEAR", "output": 14}, {"input": 1, "interpolation": "LINEAR", "output": 15}, {"input": 1, "interpolation": "LINEAR", "output": 16}, {"input": 1, "interpolation": "LINEAR", "output": 17}, {"input": 1, "interpolation": "LINEAR", "output": 18}, {"input": 1, "interpolation": "LINEAR", "output": 19}, {"input": 1, "interpolation": "LINEAR", "output": 20}], "channels": [{"sampler": 0, "target": {"path": "translation", "node": 0}}, {"sampler": 1, "target": {"path": "rotation", "node": 0}}, {"sampler": 2, "target": {"path": "rotation", "node": 1}}, {"sampler": 3, "target": {"path": "rotation", "node": 2}}, {"sampler": 4, "target": {"path": "rotation", "node": 3}}, {"sampler": 5, "target": {"path": "rotation", "node": 5}}, {"sampler": 6, "target": {"path": "rotation", "node": 6}}, {"sampler": 7, "target": {"path": "rotation", "node": 7}}, {"sampler": 8, "target": {"path": "rotation", "node": 8}}, {"sampler": 9, "target": {"path": "rotation", "node": 10}}, {"sampler": 10, "target": {"path": "rotation", "node": 11}}, {"sampler": 11, "target": {"path": "rotation", "node": 12}}, {"sampler": 12, "target": {"path": "rotation", "node": 13}}, {"sampler": 13, "target": {"path": "rotation", "node": 15}}, {"sampler": 14, "target": {"path": "rotation", "node": 16}}, {"sampler": 15, "target": {"path": "rotation", "node": 17}}, {"sampler": 16, "target": {"path": "rotation", "node": 19}}, {"sampler": 17, "target": {"path": "rotation", "node": 20}}, {"sampler": 18, "target": {"path": "rotation", "node": 21}}]}]}